<?xml version="1.0" encoding="UTF-8"?>
<svg id="Layer_2" data-name="Layer 2" xmlns="http://www.w3.org/2000/svg" viewBox="0 0 176.69 223.22">
  <defs>
    <style>
      .cls-1 {
        fill: #2ab4ff;
      }
    </style>
  </defs>
  <g id="Layer_1-2" data-name="Layer 1">
    <g>
      <path class="cls-1" d="M19.56,219.75c1.47-1.09,3.21-.91,4.82-1.04,6.14-.51,12.17-1.49,18.14-3.07,9.41-2.49,18.05-6.55,26-12.1,7.41-5.18,14.13-11.15,19.68-18.3,4.31-5.55,7.98-11.53,10.3-18.24,.24-.7,.59-1.42-.03-1.98-.81-.74-1.54,0-2.11,.47-3,2.39-6.11,4.58-9.32,6.7-10.74,7.07-22.57,9.59-35.15,8.33-15.5-1.56-28-8.9-38.16-20.65-6.03-6.98-9.78-14.94-11.78-23.85-.61-2.72-.77-5.46-.66-8.23,.02-.6,0-1.35,.73-1.58,.76-.24,1.09,.47,1.47,.92,2.38,2.77,3.9,6.14,6.36,8.89,6.54,7.3,14.2,12.78,23.55,16,6.84,2.36,13.8,3.33,20.97,3.12,4.75-.14,9.27-1.51,13.86-2.58,10.05-2.34,17.81-8.22,24.91-15.21,5.62-5.53,9.27-12.32,11.9-19.7,3.44-9.66,3.72-19.52,1.9-29.51-.13-.71,.06-1.89-1.03-1.81-.79,.06-.68,1.13-.77,1.8-.76,5.8-2.09,11.4-5.9,16.07-9.94,12.18-28.57,12.78-38.94,.39-8.45-10.09-7.54-25.37,1.7-36,11.5-13.24,25.98-16.26,42.42-12.11,12.44,3.14,22.7,9.75,30.26,20.18,4.48,6.18,7.31,13.13,9.2,20.56,3.07,12.05,3.12,24.21,1.39,36.34-1.71,11.93-5.1,23.41-10.68,34.23-8.79,17.03-21.83,30.05-37.76,40.23-17.87,11.43-37.53,16.33-58.77,15.01-5.45-.34-10.82-.93-16.14-2.09-.81-.18-1.83,0-2.37-1.17Z"/>
      <path class="cls-1" d="M176.66,53.26c-.04,14.44-2.88,25.85-7.23,36.95-1.82,4.64-3.68,9.25-6.15,13.59-.13,.23-.24,.48-.4,.69-.73,.98-1.38,2.53-2.7,2.24-1.37-.3-.92-1.96-.96-3.04-.49-13.91-6.12-25.78-14.43-36.61-2.98-3.89-5.91-7.81-8.84-11.74-8.46-11.35-4.26-27.59,8.85-32.45,8.34-3.1,17.29-1.31,23.87,6.57,6.34,7.59,8.27,16.58,8,23.78Z"/>
      <path class="cls-1" d="M51.68,32.22c9.06-.19,18.37,1.9,27.35,5.5,3.04,1.22,5.97,2.78,8.61,4.76,.78,.59,2.13,1.25,1.57,2.47-.47,1.01-1.76,.55-2.7,.45-7.56-.81-14.94,.06-22.02,2.81-9.62,3.74-17.76,9.66-24.63,17.36-2.02,2.26-3.72,4.78-5.7,7.05-4.07,4.69-9.05,7.91-15.54,7.4-7.72-.6-13.86-4.07-16.98-11.42-2.77-6.52-2.01-12.93,2.17-18.73,4.15-5.76,10.02-9.33,16.51-11.74,9.87-3.67,20.05-6.04,31.36-5.92Z"/>
      <path class="cls-1" d="M164.77,163.75c.04,4.68-3.95,8.65-8.7,8.66-4.36,.01-8.47-4.18-8.5-8.65-.03-4.72,3.67-8.41,8.46-8.45,5-.04,8.69,3.53,8.74,8.44Z"/>
      <path class="cls-1" d="M49.45,105.75c0,8.85-6.89,15.39-15.83,15.61-8.26,.2-15.49-7.85-15.46-15.81,.03-8.64,8.24-15.92,15.64-15.73,8.66,.23,15.65,7.11,15.65,15.92Z"/>
      <path class="cls-1" d="M25.98,9.44C25.47,3.45,30.92,.02,34.8,0c4.17-.02,9.46,3.09,9.17,9.65-.24,5.37-3.74,9-9.1,8.96-5.28-.04-8.89-3.76-8.89-9.17Z"/>
    </g>
  </g>
</svg>